# xmcd
#
# Track frame offsets:
#	150
#	25144
#	44780
#	59448
#	82048
#	98751
#	114385
#	141135
#	165355
#	188024
#	209578
#	223631
#	242184
#	263849
#
# Disc length: 3832 seconds
#
# Revision: 0
# Processed by: cddbd v1.5.2PL0 Copyright (c) Steve Scherf et al.
# Submitted via: dBpowerAMP V4.0
#
DISCID=ca0ef60e
DTITLE=Various Artist - Soul Unsigned Vol1
DYEAR=2008
DGENRE=Soul
TTITLE0=Kre8iv 4ce - She
TTITLE1=Al Campos - New York Feeling
TTITLE2=Excellent Gentlemen - No Doubt About It
TTITLE3=Moses Mayes - Intrafusion
TTITLE4=Mothergroove - Don't Waste your Time
TTITLE5=Harambe - Lazy
TTITLE6=Dreemtime - Sisco (Gentlemen Players remix)
TTITLE7=Kaldera - What The Rhythm's 4
TTITLE8=Yohimbe - Love ESC
TTITLE9=The Black Style Mood - Closer
TTITLE10=Groove's Back Prodns feat Amari M - Gentlly
TTITLE11=Maintain - Shed Some Light
TTITLE12=Majahba - Womaniser
TTITLE13=Kan Sano - Inner Sun
EXTD=
EXTT0=
EXTT1=
EXTT2=
EXTT3=
EXTT4=
EXTT5=
EXTT6=
EXTT7=
EXTT8=
EXTT9=
EXTT10=
EXTT11=
EXTT12=
EXTT13=
PLAYORDER=
